<svg width="143" height="144" viewBox="0 0 143 144" fill="none" xmlns="http://www.w3.org/2000/svg">
<path d="M140.593 141.391H10.0453V134.003H133.799H134.663V133.14V10.844H140.593V141.391ZM132.936 132.275H10.0453V10.844H132.936V132.275ZM2.38799 132.275V1.728H132.936V9.116H9.18265H8.31865V9.97867V132.275H2.38799ZM141.457 9.116H134.663V0.864002V-1.64199e-06H133.799H1.52265H0.659988V0.864002V133.14V134.003H1.52265H8.31865V142.253V143.119H9.18265H141.457H142.321V142.253V9.97867V9.116H141.457Z" fill="#373535"/>
<path d="M51.3407 34.4235V40.5848V58.3848C51.3407 60.6408 53.1713 62.4741 55.4287 62.4741C57.6873 62.4741 59.5193 60.6408 59.5193 58.3848V34.4235V33.1328H51.3407V34.4235Z" fill="#373535"/>
<path d="M45.7274 31.842H98.4301C99.1754 31.842 99.7861 31.0887 99.7861 30.166C99.7861 29.2447 99.1754 28.49 98.4301 28.49H45.7274C44.9821 28.49 44.3714 29.2447 44.3714 30.166C44.3714 31.0887 44.9821 31.842 45.7274 31.842Z" fill="#373535"/>
<path d="M76.0088 51.4208V51.3475H68.2368C64.2941 51.4088 61.0888 54.4981 61.0755 58.2355L60.9795 80.0928C60.9755 80.7101 61.0608 81.3075 61.2235 81.8755C61.1608 82.1555 61.1288 82.4475 61.1288 82.7461V118.541C61.1288 120.795 62.9608 122.63 65.2195 122.63C67.4768 122.63 69.3101 120.795 69.3101 118.541V86.7781H73.6555V118.541C73.6555 120.795 75.4901 122.63 77.7475 122.63C80.0035 122.63 81.8368 120.795 81.8368 118.541V82.7461C81.8368 82.3448 81.7808 81.9555 81.6728 81.5901C81.8275 81.0368 81.9101 80.4581 81.9141 79.8608L82.0061 58.0168C82.0168 54.6301 79.4195 51.8755 76.0088 51.4208Z" fill="#373535"/>
<path d="M78.6142 42.8007C78.5902 38.8687 75.3795 35.6954 71.4422 35.7194C67.5168 35.7421 64.3422 38.9527 64.3662 42.8861C64.3902 46.8167 67.5995 49.9914 71.5315 49.9674C75.4648 49.9421 78.6382 46.7327 78.6142 42.8007Z" fill="#373535"/>
<path d="M92.2498 26.2462V26.1768C92.2498 23.9182 90.4178 22.0875 88.1618 22.0875C85.9031 22.0875 84.0711 23.9182 84.0711 26.1768V26.2462V27.0488H92.2498V26.2462Z" fill="#373535"/>
<path d="M84.0711 34.4235V58.3848C84.0711 60.6408 85.9031 62.4741 88.1618 62.4741C90.4178 62.4741 92.2498 60.6408 92.2498 58.3848V39.2181V34.4235V33.1328H84.0711V34.4235Z" fill="#373535"/>
<path d="M59.5193 26.2462V26.1768C59.5193 23.9182 57.6873 22.0875 55.4287 22.0875C53.1713 22.0875 51.3407 23.9182 51.3407 26.1768V26.2462V27.0488H59.5193V26.2462Z" fill="#373535"/>
</svg>
